<svg width="237" height="113" viewBox="0 0 237 113" fill="none" xmlns="http://www.w3.org/2000/svg">
<path d="M34 3L135 13L230 36L234 54L230 72L135 98.5L34 102V3Z" fill="#CAA524"/>
<path d="M34 3L135 13L230 36L234 54L230 72L135 98.5L34 102V3Z" fill="#FFC700"/>
<path d="M34 3L135 13L230 36L234 54L230 72L135 98.5L34 102V3Z" fill="#CAA524"/>
<path d="M8 34.5L203 3V102L8 71L3.5 54L8 34.5Z" fill="#CAA524"/>
<path d="M8 34.5L203 3V102L8 71L3.5 54L8 34.5Z" fill="#CAA524"/>
<path d="M8 34.5L203 3V102L8 71L3.5 54L8 34.5Z" fill="#CAA524"/>
<rect x="19" y="3" width="199" height="99" fill="#CAA524"/>
<rect x="19" y="3" width="199" height="99" fill="#CAA524"/>
<rect x="19" y="3" width="199" height="99" fill="#CAA524"/>
<path d="M18.5 3L218.5 3" stroke="white" stroke-width="6" stroke-linecap="round"/>
<path d="M18.5 102L218.5 102" stroke="white" stroke-width="6" stroke-linecap="round"/>
<path d="M218.5 3L218.5 103" stroke="white" stroke-width="6" stroke-linecap="round"/>
<path d="M218.5 28L230.5 37L233 53L230.5 70L218.5 78" stroke="white" stroke-width="6" stroke-linecap="round"/>
<path d="M18.5 78L6.5 69L4 53L6.5 36L18.5 28" stroke="white" stroke-width="6" stroke-linecap="round"/>
<path d="M159.5 108H127.5" stroke="white" stroke-width="10" stroke-linecap="round"/>
<path d="M159.5 108H129.5" stroke="white" stroke-width="10" stroke-linecap="round"/>
<path d="M107.5 108H77.5" stroke="white" stroke-width="10" stroke-linecap="round"/>
<path d="M18.5 3L18.5 103" stroke="white" stroke-width="6" stroke-linecap="round"/>
</svg>
