<svg width="207" height="68" viewBox="0 0 207 68" fill="none" xmlns="http://www.w3.org/2000/svg">
<path d="M30 3L117.87 8.75758L200.52 22L204 32.3636L200.52 42.7273L117.87 57.9848L30 60V3Z" fill="#CAA524"/>
<path d="M30 3L117.87 8.75758L200.52 22L204 32.3636L200.52 42.7273L117.87 57.9848L30 60V3Z" fill="#FFC700"/>
<path d="M30 3L117.87 8.75758L200.52 22L204 32.3636L200.52 42.7273L117.87 57.9848L30 60V3Z" fill="#CAA524"/>
<path d="M7.90226 21.1364L177 3V60L7.90226 42.1515L4 32.3636L7.90226 21.1364Z" fill="#CAA524"/>
<path d="M7.90226 21.1364L177 3V60L7.90226 42.1515L4 32.3636L7.90226 21.1364Z" fill="#CAA524"/>
<path d="M7.90226 21.1364L177 3V60L7.90226 42.1515L4 32.3636L7.90226 21.1364Z" fill="#CAA524"/>
<rect x="17" y="3" width="173" height="57" fill="#CAA524"/>
<rect x="17" y="3" width="173" height="57" fill="#CAA524"/>
<rect x="17" y="3" width="173" height="57" fill="#CAA524"/>
<path d="M17 3L191 3" stroke="white" stroke-width="6" stroke-linecap="round"/>
<path d="M17 60L191 60" stroke="white" stroke-width="6" stroke-linecap="round"/>
<path d="M191 3V60" stroke="white" stroke-width="6" stroke-linecap="round"/>
<path d="M191 17L200.931 22.22L203 31.5L200.931 41.36L191 46" stroke="white" stroke-width="6" stroke-linecap="round"/>
<path d="M16 46L6.06897 40.78L4 31.5L6.06897 21.64L16 17" stroke="white" stroke-width="6" stroke-linecap="round"/>
<path d="M140 63H111" stroke="white" stroke-width="10" stroke-linecap="round"/>
<path d="M140 63H113" stroke="white" stroke-width="10" stroke-linecap="round"/>
<path d="M94 63H67" stroke="white" stroke-width="10" stroke-linecap="round"/>
<path d="M17 3L17 60" stroke="white" stroke-width="6" stroke-linecap="round"/>
</svg>
