<svg width="253" height="258" viewBox="0 0 253 258" fill="none" xmlns="http://www.w3.org/2000/svg">
<path d="M84.5 109.711V12.8571L213.5 85.7917V184.134L84.5 109.711Z" fill="#FFC700" stroke="black"/>
<path d="M79 113.5L219 195L136 243.5L2.99999 161.664L79 113.5Z" fill="#878787"/>
<path d="M2.78795 162L136 245L133.5 252L2.78795 170.5L2.78795 162Z" fill="#3F3F3F"/>
<path d="M137 244.5L227 190.5L227 197.5L133 251.5L137 244.5Z" fill="#3F3F3F"/>
<path d="M76 175L113 197L95.5 209L58 187.5L76 175Z" fill="#4D4D4D"/>
<path d="M78.5 9.5L84 5.5V111L78.5 113.5V9.5Z" fill="#3F3F3F"/>
<path d="M82 9.5L86 5L219 85.5L215 87.5L82 9.5Z" fill="#3F3F3F"/>
<path d="M85.0032 4.1452L90.5 0.5L223 78.5L219 86.6047L85.0032 4.1452Z" fill="#3F3F3F"/>
<path d="M77.0032 113.12L82.5 109.475L216 184.5L218.529 195L77.0032 113.12Z" fill="#3F3F3F"/>
<path d="M227.411 199L219 197.5L215.092 192L215.092 76.5L223.5 78.5L226.5 83.5L227.411 199Z" fill="#3F3F3F"/>
<line x1="135.748" y1="244.568" x2="226.748" y2="191.568" stroke="white"/>
<line x1="79.2527" y1="113.569" x2="219.253" y2="195.569" stroke="white"/>
<path d="M83.2499 109.567L214 186" stroke="white"/>
<line x1="3.26205" y1="171.574" x2="133.262" y2="251.574" stroke="white"/>
<line x1="0.739072" y1="161.573" x2="85.7391" y2="109.573" stroke="white"/>
<line x1="1.26187" y1="161.574" x2="136.262" y2="244.574" stroke="white"/>
<line x1="1.49029" y1="161.902" x2="3.49029" y2="171.902" stroke="white"/>
<line x1="132.54" y1="251.803" x2="135.54" y2="244.803" stroke="white"/>
<line x1="132.803" y1="251.54" x2="139.803" y2="248.54" stroke="white"/>
<line x1="227.5" y1="190.997" x2="227.54" y2="198.613" stroke="white"/>
<line x1="139.751" y1="248.566" x2="226.751" y2="198.566" stroke="white"/>
<path d="M214.521 185.5L214.521 88.0004" stroke="white"/>
<line x1="218.5" y1="196" x2="218.5" y2="85" stroke="white"/>
<line x1="212.748" y1="85.432" x2="85.7483" y2="11.432" stroke="white"/>
<line x1="218.741" y1="85.4279" x2="84.7413" y2="4.4279" stroke="white"/>
<line x1="223.749" y1="78.4327" x2="90.7495" y2="1.43271" stroke="white"/>
<line x1="84.5" y1="110" x2="84.5" y2="11" stroke="white"/>
<line x1="78.5" y1="114" x2="78.5" y2="9" stroke="white"/>
<line x1="226.5" y1="191" x2="226.5" y2="83" stroke="white"/>
<line x1="82.7" y1="6.6" x2="90.7" y2="0.6" stroke="white"/>
<line x1="78.7" y1="9.6" x2="86.7" y2="3.6" stroke="white"/>
<line x1="223.429" y1="78.7428" x2="226.429" y2="83.7428" stroke="white"/>
<line x1="211.429" y1="84.7428" x2="214.429" y2="89.7428" stroke="white"/>
<line x1="213.752" y1="203.566" x2="220.752" y2="199.566" stroke="white"/>
<line x1="213.504" y1="203.132" x2="220.504" y2="199.132" stroke="white" stroke-width="2"/>
<line x1="204.504" y1="208.132" x2="211.504" y2="204.132" stroke="white" stroke-width="2"/>
<line x1="76.2774" y1="175.416" x2="58.2774" y2="187.416" stroke="white"/>
<line x1="113.277" y1="197.416" x2="95.2774" y2="209.416" stroke="white"/>
<line x1="95.7445" y1="209.43" x2="58.7445" y2="187.43" stroke="white"/>
<line x1="112.744" y1="197.43" x2="75.7445" y2="175.43" stroke="white"/>
<path d="M83 124L203.5 193.5L195 199.5L73.5 128.5L83 124Z" fill="#4D4D4D"/>
<path d="M72 130L192.5 199.5L184 205.5L62.5 134.5L72 130Z" fill="#4D4D4D"/>
<path d="M62.5 136.577L183 206.077L174.5 212.077L53 141.077L62.5 136.577Z" fill="#4D4D4D"/>
<path d="M52 143L172.5 212.5L164 218.5L42.5 147.5L52 143Z" fill="#4D4D4D"/>
</svg>
