<svg width="226" height="76" viewBox="0 0 226 76" fill="none" xmlns="http://www.w3.org/2000/svg">
<rect x="19" y="12" width="191" height="61" fill="#BDB67A"/>
<rect x="3" y="12" width="9" height="219" transform="rotate(-90 3 12)" fill="#94BD7A"/>
<rect x="3" y="21" width="9" height="219" transform="rotate(-90 3 21)" fill="#72915F"/>
<rect x="19" y="73" width="51" height="191" transform="rotate(-90 19 73)" fill="#72915F"/>
<rect x="4" y="21" width="9" height="219" transform="rotate(-90 4 21)" fill="#91B67A"/>
<rect x="209" y="12" width="14" height="57" fill="#94BD7A"/>
<rect x="3" y="14" width="14" height="53" fill="#94BD7A"/>
<rect x="19" y="22" width="22" height="25" fill="#94BD7A"/>
<rect x="186" y="22" width="22" height="25" fill="#94BD7A"/>
<path d="M3 5L3 69" stroke="white" stroke-width="6" stroke-linecap="round"/>
<path d="M223 3V67" stroke="white" stroke-width="6" stroke-linecap="round"/>
<path d="M17.1935 13.9016L18.0637 73" stroke="white" stroke-width="6" stroke-linecap="round"/>
<path d="M113.887 34.5573L113.887 70.7048" stroke="white" stroke-width="6" stroke-linecap="round"/>
<path d="M113.887 34.5573L113.887 70.7048" stroke="white" stroke-width="6" stroke-linecap="round"/>
<path d="M209 12L18 12" stroke="white" stroke-width="6" stroke-linecap="round"/>
<path d="M209 73L18 73" stroke="white" stroke-width="6" stroke-linecap="round"/>
<path d="M222 3L2.99999 3" stroke="white" stroke-width="6" stroke-linecap="round"/>
<path d="M222 12L2.99999 12" stroke="white" stroke-width="6" stroke-linecap="round"/>
<path d="M208.863 21.9344L17.1358 21.3606" stroke="white" stroke-width="6" stroke-linecap="round"/>
<path d="M222 69H209" stroke="white" stroke-width="6" stroke-linecap="round"/>
<path d="M206 47H184" stroke="white" stroke-width="6" stroke-linecap="round"/>
<path d="M41 47H18" stroke="white" stroke-width="6" stroke-linecap="round"/>
<path d="M41 47V21" stroke="white" stroke-width="6" stroke-linecap="round"/>
<path d="M114 27V12" stroke="white" stroke-width="6" stroke-linecap="round"/>
<path d="M184 47V22" stroke="white" stroke-width="6" stroke-linecap="round"/>
<path d="M17 69H4" stroke="white" stroke-width="6" stroke-linecap="round"/>
<path d="M210 14V71" stroke="white" stroke-width="6" stroke-linecap="round"/>
</svg>
