<svg width="128" height="254" viewBox="0 0 128 254" fill="none" xmlns="http://www.w3.org/2000/svg">
<path d="M6 251H118" stroke="black" stroke-width="6" stroke-linecap="round"/>
<path d="M3 3H115" stroke="black" stroke-width="6" stroke-linecap="round"/>
<path d="M22 235L125 234.019" stroke="black" stroke-width="6" stroke-linecap="round"/>
<path d="M58 126L121 126" stroke="black" stroke-width="6" stroke-linecap="round"/>
<path d="M58 126L121 126" stroke="black" stroke-width="6" stroke-linecap="round"/>
<path d="M19 18L19 234" stroke="black" stroke-width="6" stroke-linecap="round"/>
<path d="M125 18L125 234" stroke="black" stroke-width="6" stroke-linecap="round"/>
<path d="M3 3L3 251" stroke="black" stroke-width="6" stroke-linecap="round"/>
<path d="M19 3L19 251" stroke="black" stroke-width="6" stroke-linecap="round"/>
<path d="M36 18L35 235" stroke="black" stroke-width="6" stroke-linecap="round"/>
<path d="M118 3V18" stroke="black" stroke-width="6" stroke-linecap="round"/>
<path d="M80 22V48" stroke="black" stroke-width="6" stroke-linecap="round"/>
<path d="M80 208V234" stroke="black" stroke-width="6" stroke-linecap="round"/>
<path d="M80 208H35" stroke="black" stroke-width="6" stroke-linecap="round"/>
<path d="M44 126H19" stroke="black" stroke-width="6" stroke-linecap="round"/>
<path d="M80 48L35 48" stroke="black" stroke-width="6" stroke-linecap="round"/>
<path d="M118 235V250" stroke="black" stroke-width="6" stroke-linecap="round"/>
<path d="M22 18H121" stroke="black" stroke-width="6" stroke-linecap="round"/>
</svg>
